# xmcd
#
# Track frame offsets:
#	150
#	18270
#	31053
#	49316
#	67561
#	82237
#	99609
#	113548
#	125378
#	139996
#	156769
#	168007
#	175778
#
# Disc length: 2596 seconds
#
# Revision: 1
# Processed by: cddbd v1.5.2PL0 Copyright (c) Steve Scherf et al.
# Submitted via: audiograbber 1.83.01
#
DISCID=9a0a220d
DTITLE=Nina Hagen - Personal Jesus
DYEAR=2010
DGENRE=Gospel
TTITLE0=God's Radar
TTITLE1=I'll Live Again
TTITLE2=Personal Jesus
TTITLE3=Nobody's Fault But Mine
TTITLE4=Down At The Cross
TTITLE5=Just A Little Talk With Jesus
TTITLE6=Mean Old World
TTITLE7=Help Me
TTITLE8=Take Jesus With You
TTITLE9=On The Battlefield
TTITLE10=Run On
TTITLE11=All You Fascists Bound To Lose
TTITLE12=Sometimes I Ring Up Heaven
EXTD=
EXTT0=
EXTT1=
EXTT2=
EXTT3=
EXTT4=
EXTT5=
EXTT6=
EXTT7=
EXTT8=
EXTT9=
EXTT10=
EXTT11=
EXTT12=
PLAYORDER=
